<?xml version="1.0" standalone="no"?>
<!DOCTYPE svg PUBLIC "-//W3C//DTD SVG 20010904//EN"
 "http://www.w3.org/TR/2001/REC-SVG-20010904/DTD/svg10.dtd">
<svg version="1.0" xmlns="http://www.w3.org/2000/svg"
 width="348.000000pt" height="348.000000pt" viewBox="0 0 348.000000 348.000000"
 preserveAspectRatio="xMidYMid meet">
<metadata>
Created by potrace 1.11, written by Peter Selinger 2001-2013
</metadata>
<g transform="translate(0.000000,348.000000) scale(0.100000,-0.100000)"
fill="#000000" stroke="none">
<path d="M0 1740 l0 -1740 1740 0 1740 0 0 1740 0 1740 -1740 0 -1740 0 0
-1740z m2361 858 c105 -48 140 -126 163 -366 9 -87 22 -165 31 -181 27 -53 66
-72 152 -74 43 -1 81 -6 85 -12 4 -5 8 -33 8 -61 l0 -51 -58 -6 c-65 -5 -130
-35 -150 -66 -22 -37 -24 -102 -8 -260 29 -277 19 -349 -59 -427 -50 -50 -124
-80 -223 -90 -60 -5 -72 -4 -72 8 0 9 -3 36 -6 62 -7 46 -7 46 23 46 54 0 136
31 165 62 48 51 52 90 33 301 -10 104 -15 211 -13 238 6 64 49 127 104 155
l41 21 -42 11 c-105 28 -138 93 -159 316 -12 127 -20 165 -38 198 -33 59 -85
83 -170 81 -60 -1 -67 1 -72 20 -10 38 -6 95 7 101 6 3 55 4 107 3 77 -2 105
-8 151 -29z m-1131 -67 c0 -10 3 -39 6 -65 l7 -46 -47 0 c-89 0 -168 -52 -187
-124 -8 -28 -7 -79 2 -183 13 -159 9 -214 -20 -272 -21 -41 -52 -65 -109 -86
l-37 -14 32 0 c78 -2 146 -57 168 -136 8 -27 21 -126 30 -220 22 -245 30 -273
93 -315 28 -20 51 -26 113 -29 l77 -3 6 -37 c13 -78 13 -78 -61 -85 -167 -17
-291 50 -337 181 -8 23 -22 124 -31 224 -18 209 -28 265 -55 297 -28 34 -82
52 -154 52 -71 0 -76 5 -76 81 0 36 1 37 48 44 79 11 120 27 148 56 32 34 33
53 20 290 -10 167 -1 225 45 289 37 51 113 89 209 104 108 17 110 17 110 -3z"/>
</g>
</svg>
